<svg xmlns="http://www.w3.org/2000/svg" viewBox="0 0 92.52 107.98"><defs><style>.cls-1{fill:#fff;stroke:#221e1f;stroke-miterlimit:10;stroke-width:2px;}.cls-2{fill:#221e1f;}.cls-3{fill:#be1d2c;}</style></defs><title>자산 1</title><g id="레이어_2" data-name="레이어 2"><g id="레이어_1-2" data-name="레이어 1"><polygon class="cls-1" points="46.26 8.77 91.52 27.86 91.52 80.12 46.26 106.25 46.26 98.94 1 80.12 1 27.86 46.26 1.73 46.26 8.77"/><path class="cls-2" d="M5.51,70H26.79v4.47H5.51"/><polyline class="cls-2" points="5.51 33.81 26.79 33.81 26.79 38.19 5.51 38.19"/><polyline class="cls-2" points="5.51 51.87 26.79 51.87 26.79 56.33 5.51 56.33"/><path class="cls-2" d="M65.72,70H87v4.47H65.72"/><polyline class="cls-2" points="65.72 33.81 87.01 33.81 87.01 38.19 65.72 38.19"/><polyline class="cls-2" points="65.72 51.88 87.01 51.88 87.01 56.35 65.72 56.35"/><polyline class="cls-3" points="52.13 74.17 33.48 49.88 50.69 49.88 50.69 39.18 37.9 39.18 33.48 33.81 56.97 33.81 56.97 55.2 44.58 55.2 59.03 74.17"/></g></g></svg>