<?xml version="1.0" encoding="utf-8"?>
<!-- Generator: Adobe Illustrator 24.0.0, SVG Export Plug-In . SVG Version: 6.00 Build 0)  -->
<!DOCTYPE svg PUBLIC "-//W3C//DTD SVG 1.1//EN" "http://www.w3.org/Graphics/SVG/1.1/DTD/svg11.dtd" [
	<!ENTITY ns_extend "http://ns.adobe.com/Extensibility/1.0/">
	<!ENTITY ns_ai "http://ns.adobe.com/AdobeIllustrator/10.0/">
	<!ENTITY ns_graphs "http://ns.adobe.com/Graphs/1.0/">
	<!ENTITY ns_vars "http://ns.adobe.com/Variables/1.0/">
	<!ENTITY ns_imrep "http://ns.adobe.com/ImageReplacement/1.0/">
	<!ENTITY ns_sfw "http://ns.adobe.com/SaveForWeb/1.0/">
	<!ENTITY ns_custom "http://ns.adobe.com/GenericCustomNamespace/1.0/">
	<!ENTITY ns_adobe_xpath "http://ns.adobe.com/XPath/1.0/">
]>
<svg version="1.1" id="레이어_1" xmlns:x="&ns_extend;" xmlns:i="&ns_ai;" xmlns:graph="&ns_graphs;"
	 xmlns="http://www.w3.org/2000/svg" xmlns:xlink="http://www.w3.org/1999/xlink" x="0px" y="0px" width="1920px" height="1080px"
	 viewBox="0 0 1920 1080" style="enable-background:new 0 0 1920 1080;" xml:space="preserve">
<style type="text/css">
	.st0{fill:#FFFFFF;stroke:#221E1F;stroke-width:2;stroke-miterlimit:10;}
	.st1{fill:#221E1F;}
	.st2{fill:#BE1D2C;}
</style>
<metadata>
	<sfw  xmlns="&ns_sfw;">
		<slices></slices>
		<sliceSourceBounds  bottomLeftOrigin="true" height="108" width="92.5" x="906.7" y="-589.3"></sliceSourceBounds>
	</sfw>
</metadata>
<g>
	<polygon class="st0" points="953,490.1 998.3,509.2 998.3,561.4 953,587.6 953,580.2 907.7,561.4 907.7,509.2 953,483 	"/>
	<g>
		<g>
			<path class="st1" d="M912.3,551.3h21.3v4.5h-21.3"/>
			<polyline class="st1" points="912.3,515.1 933.5,515.1 933.5,519.5 912.3,519.5 			"/>
			<polyline class="st1" points="912.3,533.2 933.5,533.2 933.5,537.6 912.3,537.6 			"/>
		</g>
		<g>
			<path class="st1" d="M972.5,551.3h21.3v4.5h-21.3"/>
			<polyline class="st1" points="972.5,515.1 993.7,515.1 993.7,519.5 972.5,519.5 			"/>
			<polyline class="st1" points="972.5,533.2 993.7,533.2 993.7,537.7 972.5,537.7 			"/>
		</g>
		<polyline class="st2" points="958.9,555.5 940.2,531.2 957.4,531.2 957.4,520.5 944.6,520.5 940.2,515.1 963.7,515.1 963.7,536.5 
			951.3,536.5 965.8,555.5 		"/>
	</g>
</g>
</svg>
